<svg width="398" height="167" viewBox="0 0 398 167" fill="none" xmlns="http://www.w3.org/2000/svg">
<g clip-path="url(#clip0_1_2)">
<path d="M47.702 128.536C42.4967 128.536 38.1447 127.64 34.646 125.848C31.1473 123.971 28.5447 121.539 26.838 118.552C25.1313 115.48 24.278 112.152 24.278 108.568C24.278 104.216 25.3873 100.547 27.606 97.56C29.91 94.488 33.11 92.184 37.206 90.648C41.3873 89.0267 46.294 88.216 51.926 88.216H68.95C68.95 84.2053 68.31 80.8773 67.03 78.232C65.8353 75.5013 64.0433 73.4533 61.654 72.088C59.35 70.7227 56.4487 70.04 52.95 70.04C48.854 70.04 45.3127 71.064 42.326 73.112C39.3393 75.16 37.5047 78.1893 36.822 82.2H25.814C26.326 77.592 27.862 73.752 30.422 70.68C33.0673 67.5227 36.3953 65.1333 40.406 63.512C44.4167 61.8053 48.598 60.952 52.95 60.952C58.9233 60.952 63.8727 62.0613 67.798 64.28C71.8087 66.4133 74.7953 69.4427 76.758 73.368C78.7207 77.208 79.702 81.7733 79.702 87.064V127H70.102L69.462 115.608C68.6087 117.4 67.4993 119.107 66.134 120.728C64.854 122.264 63.318 123.629 61.526 124.824C59.734 125.933 57.686 126.829 55.382 127.512C53.1633 128.195 50.6033 128.536 47.702 128.536ZM49.366 119.448C52.3527 119.448 55.0407 118.851 57.43 117.656C59.9047 116.376 61.9953 114.669 63.702 112.536C65.4087 110.317 66.6887 107.885 67.542 105.24C68.4807 102.595 68.95 99.8213 68.95 96.92V96.536H52.822C48.6407 96.536 45.27 97.048 42.71 98.072C40.15 99.0107 38.3153 100.376 37.206 102.168C36.0967 103.875 35.542 105.837 35.542 108.056C35.542 110.36 36.054 112.365 37.078 114.072C38.1873 115.779 39.766 117.101 41.814 118.04C43.9473 118.979 46.4647 119.448 49.366 119.448ZM130.127 128.536C126.458 128.536 123.13 128.024 120.143 127C117.242 125.891 114.682 124.44 112.463 122.648C110.244 120.856 108.41 118.765 106.959 116.376L106.063 127H96.335V34.84H107.087V73.112C109.135 69.784 112.079 66.9253 115.919 64.536C119.759 62.1467 124.495 60.952 130.127 60.952C136.356 60.952 141.818 62.4453 146.511 65.432C151.204 68.3333 154.831 72.344 157.391 77.464C160.036 82.4987 161.359 88.2587 161.359 94.744C161.359 101.229 160.036 107.032 157.391 112.152C154.831 117.272 151.204 121.283 146.511 124.184C141.818 127.085 136.356 128.536 130.127 128.536ZM128.847 119.192C133.028 119.192 136.74 118.168 139.983 116.12C143.226 114.072 145.743 111.256 147.535 107.672C149.412 104.003 150.351 99.6933 150.351 94.744C150.351 89.88 149.412 85.6133 147.535 81.944C145.743 78.2747 143.226 75.416 139.983 73.368C136.74 71.32 133.028 70.296 128.847 70.296C124.58 70.296 120.826 71.32 117.583 73.368C114.34 75.416 111.823 78.2747 110.031 81.944C108.239 85.6133 107.343 89.88 107.343 94.744C107.343 99.6933 108.239 104.003 110.031 107.672C111.823 111.256 114.34 114.072 117.583 116.12C120.826 118.168 124.58 119.192 128.847 119.192ZM205.26 128.536C199.287 128.536 193.911 127.171 189.132 124.44C184.353 121.624 180.599 117.699 177.868 112.664C175.137 107.544 173.772 101.613 173.772 94.872C173.772 87.96 175.137 81.9867 177.868 76.952C180.684 71.832 184.481 67.9067 189.26 65.176C194.124 62.36 199.543 60.952 205.516 60.952C211.66 60.952 217.079 62.36 221.772 65.176C226.551 67.9067 230.305 71.832 233.036 76.952C235.852 81.9867 237.26 87.9173 237.26 94.744C237.26 101.571 235.852 107.544 233.036 112.664C230.22 117.699 226.423 121.624 221.644 124.44C216.865 127.171 211.404 128.536 205.26 128.536ZM205.388 119.32C209.057 119.32 212.471 118.424 215.628 116.632C218.785 114.755 221.345 111.981 223.308 108.312C225.271 104.643 226.252 100.12 226.252 94.744C226.252 89.2827 225.271 84.76 223.308 81.176C221.431 77.5067 218.913 74.776 215.756 72.984C212.684 71.1067 209.271 70.168 205.516 70.168C201.932 70.168 198.519 71.1067 195.276 72.984C192.119 74.776 189.559 77.5067 187.596 81.176C185.719 84.76 184.78 89.2827 184.78 94.744C184.78 100.12 185.719 104.643 187.596 108.312C189.559 111.981 192.076 114.755 195.148 116.632C198.305 118.424 201.719 119.32 205.388 119.32ZM267.645 127L243.197 62.488H254.461L273.917 116.632L293.501 62.488H304.509L280.061 127H267.645ZM342.135 128.536C336.162 128.536 330.786 127.171 326.007 124.44C321.228 121.624 317.474 117.699 314.743 112.664C312.012 107.544 310.647 101.613 310.647 94.872C310.647 87.96 312.012 81.9867 314.743 76.952C317.559 71.832 321.356 67.9067 326.135 65.176C330.999 62.36 336.418 60.952 342.391 60.952C348.535 60.952 353.954 62.36 358.647 65.176C363.426 67.9067 367.18 71.832 369.911 76.952C372.727 81.9867 374.135 87.9173 374.135 94.744C374.135 101.571 372.727 107.544 369.911 112.664C367.095 117.699 363.298 121.624 358.519 124.44C353.74 127.171 348.279 128.536 342.135 128.536ZM342.263 119.32C345.932 119.32 349.346 118.424 352.503 116.632C355.66 114.755 358.22 111.981 360.183 108.312C362.146 104.643 363.127 100.12 363.127 94.744C363.127 89.2827 362.146 84.76 360.183 81.176C358.306 77.5067 355.788 74.776 352.631 72.984C349.559 71.1067 346.146 70.168 342.391 70.168C338.807 70.168 335.394 71.1067 332.151 72.984C328.994 74.776 326.434 77.5067 324.471 81.176C322.594 84.76 321.655 89.2827 321.655 94.744C321.655 100.12 322.594 104.643 324.471 108.312C326.434 111.981 328.951 114.755 332.023 116.632C335.18 118.424 338.594 119.32 342.263 119.32Z" fill="#2D2D2F"/>
<circle cx="205.5" cy="94.5" r="10.5" fill="#FFBD59"/>
</g>
<defs>
<clipPath id="clip0_1_2">
<rect width="398" height="167" fill="white"/>
</clipPath>
</defs>
</svg>
